<?xml version="1.0" encoding="UTF-8"?>
<svg version="1.1" xmlns="http://www.w3.org/2000/svg" width="256" height="256">
<path d="M0 0 C84.48 0 168.96 0 256 0 C256 84.48 256 168.96 256 256 C171.52 256 87.04 256 0 256 C0 171.52 0 87.04 0 0 Z " fill="#4797DB" transform="translate(0,0)"/>
<path d="M0 0 C0.99808685 -0.01606293 1.99617371 -0.03212585 3.02450562 -0.04867554 C7.56434169 -0.09341923 12.1040379 -0.1341587 16.64404297 -0.15722656 C19.03574339 -0.17380399 21.42739391 -0.20111712 23.81884766 -0.23925781 C27.27874276 -0.29409353 30.7374825 -0.31590836 34.19775391 -0.33056641 C35.26150238 -0.35323578 36.32525085 -0.37590515 37.42123413 -0.39926147 C44.27345207 -0.37981778 47.7372513 0.57284393 52.86181641 5.19287109 C56.6420531 9.57119798 56.21849422 14.00926093 56.04931641 19.50537109 C56.02901367 20.75930664 56.02901367 20.75930664 56.00830078 22.03857422 C55.97312858 24.09028608 55.91932689 26.14166384 55.86181641 28.19287109 C56.52189697 28.17716064 57.18197754 28.1614502 57.86206055 28.14526367 C60.88272367 28.08250421 63.90324911 28.04375126 66.92431641 28.00537109 C67.96265625 27.98023437 69.00099609 27.95509766 70.07080078 27.92919922 C77.09695879 27.86228343 81.97711954 28.37981475 87.78759766 32.58740234 C88.47402344 33.28929688 88.47402344 33.28929688 89.17431641 34.00537109 C89.64482422 34.46556641 90.11533203 34.92576172 90.60009766 35.39990234 C98.0726641 46.01881255 93.86181641 66.3963198 93.86181641 75.19287109 C44.36181641 75.19287109 -5.13818359 75.19287109 -56.13818359 75.19287109 C-56.13818359 39.81567811 -56.13818359 39.81567811 -50.35693359 33.13427734 C-49.50615234 32.45171875 -49.50615234 32.45171875 -48.63818359 31.75537109 C-48.07099609 31.28228516 -47.50380859 30.80919922 -46.91943359 30.32177734 C-43.37411111 28.07485147 -39.82971441 28.07236259 -35.71630859 28.09521484 C-34.69150391 28.0984375 -33.66669922 28.10166016 -32.61083984 28.10498047 C-31.54736328 28.11335938 -30.48388672 28.12173828 -29.38818359 28.13037109 C-28.30923828 28.13488281 -27.23029297 28.13939453 -26.11865234 28.14404297 C-23.45843976 28.15581382 -20.79833995 28.1722571 -18.13818359 28.19287109 C-18.18458984 26.96310547 -18.23099609 25.73333984 -18.27880859 24.46630859 C-18.31634395 22.8335205 -18.35274222 21.20070598 -18.38818359 19.56787109 C-18.43845703 18.35550781 -18.43845703 18.35550781 -18.48974609 17.11865234 C-18.57930588 11.61072558 -17.78977057 8.57613042 -14.13818359 4.19287109 C-9.99551032 0.31746707 -5.48867002 0.08078179 0 0 Z " fill="#F7F7F8" transform="translate(109.13818359375,57.80712890625)"/>
<path d="M0 0 C18.48 0 36.96 0 56 0 C56.495 6.435 56.495 6.435 57 13 C63.00164566 19.00164566 66.66088229 18.21197496 74.8125 18.25 C75.90626953 18.270625 77.00003906 18.29125 78.12695312 18.3125 C79.7134668 18.32023437 79.7134668 18.32023437 81.33203125 18.328125 C82.29858643 18.3374707 83.2651416 18.34681641 84.26098633 18.35644531 C87.50012256 17.93491586 89.37237884 16.90920135 92 15 C93.41634833 12.16730334 93.3463005 9.52533562 93.5625 6.375 C93.68818359 4.59222656 93.68818359 4.59222656 93.81640625 2.7734375 C93.87699219 1.85820312 93.93757813 0.94296875 94 0 C101.81452752 -0.02526563 109.62904458 -0.04283105 117.44360352 -0.05493164 C120.10441481 -0.05997383 122.76522332 -0.06680736 125.42602539 -0.07543945 C129.24105516 -0.08751009 133.05604844 -0.09322929 136.87109375 -0.09765625 C138.66793861 -0.10539818 138.66793861 -0.10539818 140.50108337 -0.11329651 C142.15268211 -0.11340981 142.15268211 -0.11340981 143.83764648 -0.11352539 C144.81249496 -0.115746 145.78734344 -0.11796661 146.79173279 -0.12025452 C149 0 149 0 150 1 C150.12608333 3.79083546 150.18870347 6.5555019 150.203125 9.34765625 C150.20882507 10.19291367 150.21452515 11.03817108 150.22039795 11.90904236 C150.22986796 13.70554344 150.23638983 15.50206205 150.24023438 17.29858398 C150.24987403 20.02684787 150.28084996 22.75433716 150.3125 25.48242188 C150.31903658 27.2291622 150.32428447 28.97590792 150.328125 30.72265625 C150.3404718 31.5313063 150.3528186 32.33995636 150.36553955 33.17311096 C150.34090795 39.55017369 149.29659692 45.19892049 145.1328125 50.27734375 C144.47023437 50.82519531 143.80765625 51.37304688 143.125 51.9375 C142.46757812 52.50339844 141.81015625 53.06929687 141.1328125 53.65234375 C137.35984115 56.03636411 133.33416544 56.12516563 128.95936584 56.13371277 C127.9682933 56.13797775 126.97722076 56.14224274 125.95611572 56.14663696 C124.88013123 56.14618378 123.80414673 56.14573059 122.69555664 56.14526367 C121.55354294 56.14862228 120.41152924 56.1519809 119.23490906 56.15544128 C115.45998039 56.16493995 111.68509612 56.16689376 107.91015625 56.16796875 C105.28608685 56.17118173 102.66201763 56.17454584 100.03794861 56.17805481 C94.5377473 56.18444429 89.03755803 56.18593781 83.53735352 56.18530273 C77.18724489 56.18470186 70.83722118 56.1952582 64.48713404 56.2110464 C58.36876391 56.22571431 52.25043445 56.22929038 46.13204765 56.22869301 C43.53291921 56.2298736 40.93379015 56.23429977 38.33467293 56.24202538 C34.70098937 56.251816 31.06752493 56.24895087 27.43383789 56.24291992 C26.35987762 56.24853943 25.28591736 56.25415894 24.17941284 56.25994873 C17.44968903 56.23154752 11.68229405 55.85608687 6.3125 51.375 C5.47138672 50.70597656 5.47138672 50.70597656 4.61328125 50.0234375 C-0.05385463 44.16974165 -0.42651155 37.62748534 -0.29296875 30.46875 C-0.28994751 29.69047852 -0.28692627 28.91220703 -0.28381348 28.11035156 C-0.26827513 25.24009688 -0.22639276 22.37003323 -0.1875 19.5 C-0.125625 13.065 -0.06375 6.63 0 0 Z " fill="#F8F8F8" transform="translate(53,142)"/>
<path d="M0 0 C0.87760986 -0.00315216 1.75521973 -0.00630432 2.65942383 -0.009552 C3.61357178 -0.00752777 4.56771973 -0.00550354 5.55078125 -0.00341797 C6.52362061 -0.00437469 7.49645996 -0.00533142 8.4987793 -0.00631714 C10.56005925 -0.00699905 12.62134133 -0.00514399 14.68261719 -0.00097656 C17.84965813 0.00437153 21.01655725 -0.00092119 24.18359375 -0.00732422 C26.1809899 -0.00666344 28.17838596 -0.00538228 30.17578125 -0.00341797 C31.1299292 -0.0054422 32.08407715 -0.00746643 33.06713867 -0.009552 C34.38355347 -0.00482376 34.38355347 -0.00482376 35.7265625 0 C36.50298096 0.00079559 37.27939941 0.00159119 38.0793457 0.00241089 C39.86328125 0.12939453 39.86328125 0.12939453 40.86328125 1.12939453 C40.86328125 5.41939453 40.86328125 9.70939453 40.86328125 14.12939453 C25.68328125 14.12939453 10.50328125 14.12939453 -5.13671875 14.12939453 C-5.13671875 0.00526358 -5.13671875 0.00526358 0 0 Z " fill="#51A0E1" transform="translate(110.13671875,71.87060546875)"/>
</svg>
